<svg width="20" height="24" viewBox="0 0 20 24" fill="none" xmlns="http://www.w3.org/2000/svg">
<path d="M15.06 0.587295L7.86469 2.13795C7.60677 2.19295 7.37549 2.3347 7.20941 2.53956C7.04333 2.74441 6.95248 3.00001 6.95201 3.26373V15.6468C6.42702 15.4645 5.8751 15.3717 5.31934 15.3724C2.80626 15.3724 0.768921 17.2177 0.768921 19.4941C0.768921 21.7704 2.80626 23.6158 5.31941 23.6158C7.0465 23.6158 8.77393 22.677 9.49191 21.0764C10.1159 19.6854 9.86977 18.0132 9.86977 16.5213V6.62223L19.7789 4.32072C19.7448 1.87246 17.4653 0.0689939 15.0601 0.587361L15.06 0.587295Z" fill="#FACD66"/>
</svg>
